<mxfile host="app.diagrams.net" modified="2021-12-08T12:10:44.539Z" agent="5.0 (Windows NT 10.0; Win64; x64) AppleWebKit/537.36 (KHTML, like Gecko) Chrome/96.0.4664.93 Safari/537.36" etag="BEvFT-6szYIFu6YrmhX-" version="15.8.8" type="github">
  <diagram id="C5RBs43oDa-KdzZeNtuy" name="Page-1">
    <mxGraphModel dx="1746" dy="449" grid="1" gridSize="10" guides="1" tooltips="1" connect="1" arrows="1" fold="1" page="1" pageScale="1" pageWidth="827" pageHeight="1169" math="0" shadow="0">
      <root>
        <mxCell id="WIyWlLk6GJQsqaUBKTNV-0" />
        <mxCell id="WIyWlLk6GJQsqaUBKTNV-1" parent="WIyWlLk6GJQsqaUBKTNV-0" />
        <mxCell id="C47w4PDdqKgOyR3Bf2Ul-8" value="contact" style="swimlane;fontStyle=1;align=center;verticalAlign=top;childLayout=stackLayout;horizontal=1;startSize=26;horizontalStack=0;resizeParent=1;resizeParentMax=0;resizeLast=0;collapsible=1;marginBottom=0;" vertex="1" parent="WIyWlLk6GJQsqaUBKTNV-1">
          <mxGeometry x="-30" y="21" width="160" height="108" as="geometry" />
        </mxCell>
        <mxCell id="C47w4PDdqKgOyR3Bf2Ul-9" value="+ name:String&#xa;+phoneNumber:String&#xa;+ email :String&#xa;" style="text;strokeColor=none;fillColor=none;align=left;verticalAlign=top;spacingLeft=4;spacingRight=4;overflow=hidden;rotatable=0;points=[[0,0.5],[1,0.5]];portConstraint=eastwest;" vertex="1" parent="C47w4PDdqKgOyR3Bf2Ul-8">
          <mxGeometry y="26" width="160" height="44" as="geometry" />
        </mxCell>
        <mxCell id="C47w4PDdqKgOyR3Bf2Ul-10" value="" style="line;strokeWidth=1;fillColor=none;align=left;verticalAlign=middle;spacingTop=-1;spacingLeft=3;spacingRight=3;rotatable=0;labelPosition=right;points=[];portConstraint=eastwest;" vertex="1" parent="C47w4PDdqKgOyR3Bf2Ul-8">
          <mxGeometry y="70" width="160" height="38" as="geometry" />
        </mxCell>
        <mxCell id="C47w4PDdqKgOyR3Bf2Ul-12" value="Adress" style="swimlane;fontStyle=1;align=center;verticalAlign=top;childLayout=stackLayout;horizontal=1;startSize=26;horizontalStack=0;resizeParent=1;resizeParentMax=0;resizeLast=0;collapsible=1;marginBottom=0;" vertex="1" parent="WIyWlLk6GJQsqaUBKTNV-1">
          <mxGeometry x="230" y="19" width="160" height="110" as="geometry" />
        </mxCell>
        <mxCell id="C47w4PDdqKgOyR3Bf2Ul-13" value="+ streetName:String&#xa;+ city:String&#xa;Â + State:String" style="text;strokeColor=none;fillColor=none;align=left;verticalAlign=top;spacingLeft=4;spacingRight=4;overflow=hidden;rotatable=0;points=[[0,0.5],[1,0.5]];portConstraint=eastwest;" vertex="1" parent="C47w4PDdqKgOyR3Bf2Ul-12">
          <mxGeometry y="26" width="160" height="54" as="geometry" />
        </mxCell>
        <mxCell id="C47w4PDdqKgOyR3Bf2Ul-14" value="" style="line;strokeWidth=1;fillColor=none;align=left;verticalAlign=middle;spacingTop=-1;spacingLeft=3;spacingRight=3;rotatable=0;labelPosition=right;points=[];portConstraint=eastwest;" vertex="1" parent="C47w4PDdqKgOyR3Bf2Ul-12">
          <mxGeometry y="80" width="160" height="30" as="geometry" />
        </mxCell>
        <mxCell id="C47w4PDdqKgOyR3Bf2Ul-16" value="Flights" style="swimlane;fontStyle=1;align=center;verticalAlign=top;childLayout=stackLayout;horizontal=1;startSize=26;horizontalStack=0;resizeParent=1;resizeParentMax=0;resizeLast=0;collapsible=1;marginBottom=0;" vertex="1" parent="WIyWlLk6GJQsqaUBKTNV-1">
          <mxGeometry x="-160" y="230" width="160" height="190" as="geometry" />
        </mxCell>
        <mxCell id="C47w4PDdqKgOyR3Bf2Ul-17" value="+ flightNumber:String&#xa;+ ownerArline:String&#xa;+ isflightAvailable:boolean&#xa;+ currentCapacity:int&#xa;&#xa;" style="text;strokeColor=none;fillColor=none;align=left;verticalAlign=top;spacingLeft=4;spacingRight=4;overflow=hidden;rotatable=0;points=[[0,0.5],[1,0.5]];portConstraint=eastwest;" vertex="1" parent="C47w4PDdqKgOyR3Bf2Ul-16">
          <mxGeometry y="26" width="160" height="104" as="geometry" />
        </mxCell>
        <mxCell id="C47w4PDdqKgOyR3Bf2Ul-18" value="" style="line;strokeWidth=1;fillColor=none;align=left;verticalAlign=middle;spacingTop=-1;spacingLeft=3;spacingRight=3;rotatable=0;labelPosition=right;points=[];portConstraint=eastwest;" vertex="1" parent="C47w4PDdqKgOyR3Bf2Ul-16">
          <mxGeometry y="130" width="160" height="8" as="geometry" />
        </mxCell>
        <mxCell id="C47w4PDdqKgOyR3Bf2Ul-19" value="+ getflightDetails:String&#xa;+ availableSeat:int" style="text;strokeColor=none;fillColor=none;align=left;verticalAlign=top;spacingLeft=4;spacingRight=4;overflow=hidden;rotatable=0;points=[[0,0.5],[1,0.5]];portConstraint=eastwest;" vertex="1" parent="C47w4PDdqKgOyR3Bf2Ul-16">
          <mxGeometry y="138" width="160" height="52" as="geometry" />
        </mxCell>
        <mxCell id="C47w4PDdqKgOyR3Bf2Ul-21" value="TicketDeatails" style="swimlane;fontStyle=1;align=center;verticalAlign=top;childLayout=stackLayout;horizontal=1;startSize=26;horizontalStack=0;resizeParent=1;resizeParentMax=0;resizeLast=0;collapsible=1;marginBottom=0;" vertex="1" parent="WIyWlLk6GJQsqaUBKTNV-1">
          <mxGeometry x="100" y="250" width="200" height="164" as="geometry" />
        </mxCell>
        <mxCell id="C47w4PDdqKgOyR3Bf2Ul-22" value="+pnrNumber:String&#xa;+ depatureLocation:String&#xa;+ destinaltionLocation:String&#xa;+ bookedFLightNumber:String&#xa;+ passengerDetails:Details&#xa;+ dateAndTImeOfArrival:String&#xa;+ dateAndTimeOfDeparture:String" style="text;strokeColor=none;fillColor=none;align=left;verticalAlign=top;spacingLeft=4;spacingRight=4;overflow=hidden;rotatable=0;points=[[0,0.5],[1,0.5]];portConstraint=eastwest;" vertex="1" parent="C47w4PDdqKgOyR3Bf2Ul-21">
          <mxGeometry y="26" width="200" height="104" as="geometry" />
        </mxCell>
        <mxCell id="C47w4PDdqKgOyR3Bf2Ul-23" value="" style="line;strokeWidth=1;fillColor=none;align=left;verticalAlign=middle;spacingTop=-1;spacingLeft=3;spacingRight=3;rotatable=0;labelPosition=right;points=[];portConstraint=eastwest;" vertex="1" parent="C47w4PDdqKgOyR3Bf2Ul-21">
          <mxGeometry y="130" width="200" height="8" as="geometry" />
        </mxCell>
        <mxCell id="C47w4PDdqKgOyR3Bf2Ul-24" value="+ getTicketStatus:String" style="text;strokeColor=none;fillColor=none;align=left;verticalAlign=top;spacingLeft=4;spacingRight=4;overflow=hidden;rotatable=0;points=[[0,0.5],[1,0.5]];portConstraint=eastwest;" vertex="1" parent="C47w4PDdqKgOyR3Bf2Ul-21">
          <mxGeometry y="138" width="200" height="26" as="geometry" />
        </mxCell>
        <mxCell id="C47w4PDdqKgOyR3Bf2Ul-25" value="RegularTicket" style="swimlane;fontStyle=1;align=center;verticalAlign=top;childLayout=stackLayout;horizontal=1;startSize=26;horizontalStack=0;resizeParent=1;resizeParentMax=0;resizeLast=0;collapsible=1;marginBottom=0;" vertex="1" parent="WIyWlLk6GJQsqaUBKTNV-1">
          <mxGeometry x="445" y="340" width="180" height="144" as="geometry" />
        </mxCell>
        <mxCell id="C47w4PDdqKgOyR3Bf2Ul-26" value="+ isfoodAvailed:boolean&#xa;+ isWaterAvailed:boolean&#xa;+ isSnackAvailed:boolean&#xa;&#xa;" style="text;strokeColor=none;fillColor=none;align=left;verticalAlign=top;spacingLeft=4;spacingRight=4;overflow=hidden;rotatable=0;points=[[0,0.5],[1,0.5]];portConstraint=eastwest;" vertex="1" parent="C47w4PDdqKgOyR3Bf2Ul-25">
          <mxGeometry y="26" width="180" height="84" as="geometry" />
        </mxCell>
        <mxCell id="C47w4PDdqKgOyR3Bf2Ul-27" value="" style="line;strokeWidth=1;fillColor=none;align=left;verticalAlign=middle;spacingTop=-1;spacingLeft=3;spacingRight=3;rotatable=0;labelPosition=right;points=[];portConstraint=eastwest;" vertex="1" parent="C47w4PDdqKgOyR3Bf2Ul-25">
          <mxGeometry y="110" width="180" height="8" as="geometry" />
        </mxCell>
        <mxCell id="C47w4PDdqKgOyR3Bf2Ul-28" value="+ SpecialServiceDetails:String" style="text;strokeColor=none;fillColor=none;align=left;verticalAlign=top;spacingLeft=4;spacingRight=4;overflow=hidden;rotatable=0;points=[[0,0.5],[1,0.5]];portConstraint=eastwest;" vertex="1" parent="C47w4PDdqKgOyR3Bf2Ul-25">
          <mxGeometry y="118" width="180" height="26" as="geometry" />
        </mxCell>
        <mxCell id="C47w4PDdqKgOyR3Bf2Ul-29" value="TouristTicket" style="swimlane;fontStyle=1;align=center;verticalAlign=top;childLayout=stackLayout;horizontal=1;startSize=26;horizontalStack=0;resizeParent=1;resizeParentMax=0;resizeLast=0;collapsible=1;marginBottom=0;" vertex="1" parent="WIyWlLk6GJQsqaUBKTNV-1">
          <mxGeometry x="440" y="190" width="190" height="124" as="geometry" />
        </mxCell>
        <mxCell id="C47w4PDdqKgOyR3Bf2Ul-30" value="+ hotelAddrees:Address&#xa;+ selectedtLocation:String[0...5]" style="text;strokeColor=none;fillColor=none;align=left;verticalAlign=top;spacingLeft=4;spacingRight=4;overflow=hidden;rotatable=0;points=[[0,0.5],[1,0.5]];portConstraint=eastwest;" vertex="1" parent="C47w4PDdqKgOyR3Bf2Ul-29">
          <mxGeometry y="26" width="190" height="64" as="geometry" />
        </mxCell>
        <mxCell id="C47w4PDdqKgOyR3Bf2Ul-31" value="" style="line;strokeWidth=1;fillColor=none;align=left;verticalAlign=middle;spacingTop=-1;spacingLeft=3;spacingRight=3;rotatable=0;labelPosition=right;points=[];portConstraint=eastwest;" vertex="1" parent="C47w4PDdqKgOyR3Bf2Ul-29">
          <mxGeometry y="90" width="190" height="8" as="geometry" />
        </mxCell>
        <mxCell id="C47w4PDdqKgOyR3Bf2Ul-32" value="+ modifyselectedLocation:String[]" style="text;strokeColor=none;fillColor=none;align=left;verticalAlign=top;spacingLeft=4;spacingRight=4;overflow=hidden;rotatable=0;points=[[0,0.5],[1,0.5]];portConstraint=eastwest;" vertex="1" parent="C47w4PDdqKgOyR3Bf2Ul-29">
          <mxGeometry y="98" width="190" height="26" as="geometry" />
        </mxCell>
        <mxCell id="C47w4PDdqKgOyR3Bf2Ul-37" value="Pasenger" style="swimlane;fontStyle=1;align=center;verticalAlign=top;childLayout=stackLayout;horizontal=1;startSize=26;horizontalStack=0;resizeParent=1;resizeParentMax=0;resizeLast=0;collapsible=1;marginBottom=0;" vertex="1" parent="WIyWlLk6GJQsqaUBKTNV-1">
          <mxGeometry x="510" y="19" width="160" height="140" as="geometry" />
        </mxCell>
        <mxCell id="C47w4PDdqKgOyR3Bf2Ul-38" value="+ contact:Contact&#xa;+ address:Adress" style="text;strokeColor=none;fillColor=none;align=left;verticalAlign=top;spacingLeft=4;spacingRight=4;overflow=hidden;rotatable=0;points=[[0,0.5],[1,0.5]];portConstraint=eastwest;" vertex="1" parent="C47w4PDdqKgOyR3Bf2Ul-37">
          <mxGeometry y="26" width="160" height="64" as="geometry" />
        </mxCell>
        <mxCell id="C47w4PDdqKgOyR3Bf2Ul-39" value="" style="line;strokeWidth=1;fillColor=none;align=left;verticalAlign=middle;spacingTop=-1;spacingLeft=3;spacingRight=3;rotatable=0;labelPosition=right;points=[];portConstraint=eastwest;" vertex="1" parent="C47w4PDdqKgOyR3Bf2Ul-37">
          <mxGeometry y="90" width="160" height="8" as="geometry" />
        </mxCell>
        <mxCell id="C47w4PDdqKgOyR3Bf2Ul-40" value="+ getaddress:String&#xa;+ getContactDetails:String" style="text;strokeColor=none;fillColor=none;align=left;verticalAlign=top;spacingLeft=4;spacingRight=4;overflow=hidden;rotatable=0;points=[[0,0.5],[1,0.5]];portConstraint=eastwest;" vertex="1" parent="C47w4PDdqKgOyR3Bf2Ul-37">
          <mxGeometry y="98" width="160" height="42" as="geometry" />
        </mxCell>
        <mxCell id="C47w4PDdqKgOyR3Bf2Ul-44" style="edgeStyle=orthogonalEdgeStyle;rounded=0;orthogonalLoop=1;jettySize=auto;html=1;entryX=0.006;entryY=0.443;entryDx=0;entryDy=0;entryPerimeter=0;endArrow=diamondThin;endFill=0;" edge="1" parent="WIyWlLk6GJQsqaUBKTNV-1" source="C47w4PDdqKgOyR3Bf2Ul-9" target="C47w4PDdqKgOyR3Bf2Ul-13">
          <mxGeometry relative="1" as="geometry" />
        </mxCell>
        <mxCell id="C47w4PDdqKgOyR3Bf2Ul-45" style="edgeStyle=orthogonalEdgeStyle;rounded=0;orthogonalLoop=1;jettySize=auto;html=1;entryX=0.009;entryY=0.411;entryDx=0;entryDy=0;entryPerimeter=0;endArrow=diamondThin;endFill=0;" edge="1" parent="WIyWlLk6GJQsqaUBKTNV-1" source="C47w4PDdqKgOyR3Bf2Ul-13" target="C47w4PDdqKgOyR3Bf2Ul-38">
          <mxGeometry relative="1" as="geometry" />
        </mxCell>
        <mxCell id="C47w4PDdqKgOyR3Bf2Ul-47" style="edgeStyle=orthogonalEdgeStyle;rounded=0;orthogonalLoop=1;jettySize=auto;html=1;endArrow=diamondThin;endFill=0;" edge="1" parent="WIyWlLk6GJQsqaUBKTNV-1" source="C47w4PDdqKgOyR3Bf2Ul-13" target="C47w4PDdqKgOyR3Bf2Ul-30">
          <mxGeometry relative="1" as="geometry" />
        </mxCell>
        <mxCell id="C47w4PDdqKgOyR3Bf2Ul-48" style="edgeStyle=orthogonalEdgeStyle;rounded=0;orthogonalLoop=1;jettySize=auto;html=1;entryX=1;entryY=0.327;entryDx=0;entryDy=0;entryPerimeter=0;endArrow=block;endFill=0;" edge="1" parent="WIyWlLk6GJQsqaUBKTNV-1" source="C47w4PDdqKgOyR3Bf2Ul-30" target="C47w4PDdqKgOyR3Bf2Ul-22">
          <mxGeometry relative="1" as="geometry" />
        </mxCell>
        <mxCell id="C47w4PDdqKgOyR3Bf2Ul-49" style="edgeStyle=orthogonalEdgeStyle;rounded=0;orthogonalLoop=1;jettySize=auto;html=1;endArrow=none;endFill=0;" edge="1" parent="WIyWlLk6GJQsqaUBKTNV-1" source="C47w4PDdqKgOyR3Bf2Ul-26">
          <mxGeometry relative="1" as="geometry">
            <mxPoint x="370" y="310" as="targetPoint" />
          </mxGeometry>
        </mxCell>
        <mxCell id="C47w4PDdqKgOyR3Bf2Ul-50" style="edgeStyle=orthogonalEdgeStyle;rounded=0;orthogonalLoop=1;jettySize=auto;html=1;exitX=1;exitY=0.5;exitDx=0;exitDy=0;entryX=0.004;entryY=0.308;entryDx=0;entryDy=0;entryPerimeter=0;endArrow=none;endFill=0;" edge="1" parent="WIyWlLk6GJQsqaUBKTNV-1" source="C47w4PDdqKgOyR3Bf2Ul-17" target="C47w4PDdqKgOyR3Bf2Ul-22">
          <mxGeometry relative="1" as="geometry" />
        </mxCell>
        <mxCell id="C47w4PDdqKgOyR3Bf2Ul-52" value="*" style="text;html=1;align=center;verticalAlign=middle;resizable=0;points=[];autosize=1;strokeColor=none;fillColor=none;" vertex="1" parent="WIyWlLk6GJQsqaUBKTNV-1">
          <mxGeometry x="10" y="282" width="20" height="20" as="geometry" />
        </mxCell>
        <mxCell id="C47w4PDdqKgOyR3Bf2Ul-53" value="1" style="text;html=1;align=center;verticalAlign=middle;resizable=0;points=[];autosize=1;strokeColor=none;fillColor=none;" vertex="1" parent="WIyWlLk6GJQsqaUBKTNV-1">
          <mxGeometry x="80" y="280" width="20" height="20" as="geometry" />
        </mxCell>
        <mxCell id="C47w4PDdqKgOyR3Bf2Ul-54" value="1" style="text;html=1;align=center;verticalAlign=middle;resizable=0;points=[];autosize=1;strokeColor=none;fillColor=none;" vertex="1" parent="WIyWlLk6GJQsqaUBKTNV-1">
          <mxGeometry x="490" y="50" width="20" height="20" as="geometry" />
        </mxCell>
        <mxCell id="C47w4PDdqKgOyR3Bf2Ul-55" value="1" style="text;html=1;align=center;verticalAlign=middle;resizable=0;points=[];autosize=1;strokeColor=none;fillColor=none;" vertex="1" parent="WIyWlLk6GJQsqaUBKTNV-1">
          <mxGeometry x="390" y="40" width="20" height="20" as="geometry" />
        </mxCell>
        <mxCell id="C47w4PDdqKgOyR3Bf2Ul-56" value="1" style="text;html=1;align=center;verticalAlign=middle;resizable=0;points=[];autosize=1;strokeColor=none;fillColor=none;" vertex="1" parent="WIyWlLk6GJQsqaUBKTNV-1">
          <mxGeometry x="210" y="50" width="20" height="20" as="geometry" />
        </mxCell>
        <mxCell id="C47w4PDdqKgOyR3Bf2Ul-57" value="1" style="text;html=1;align=center;verticalAlign=middle;resizable=0;points=[];autosize=1;strokeColor=none;fillColor=none;" vertex="1" parent="WIyWlLk6GJQsqaUBKTNV-1">
          <mxGeometry x="130" y="40" width="20" height="20" as="geometry" />
        </mxCell>
      </root>
    </mxGraphModel>
  </diagram>
</mxfile>
